<?xml version="1.0" encoding="UTF-8"?>
<svg width="320" height="240" xmlns="http://www.w3.org/2000/svg">
 <title>Open Bible one</title>
 <g>
  <title>Layer 1</title>
  <g id="svg_1">
   <path clip-rule="evenodd" d="m589.311768,151.814026c5.307922,-1.419373 3.314392,5.229797 8.622314,3.810425c2.828125,4.077133 -4.39563,9.247864 -1.724426,19.050156l-3.160889,-0.952591l-2.012512,2.857788c-3.854248,-0.821121 -0.698364,-9.38884 -1.724487,-13.336426l0.765686,-5.185989l-4.214539,-2.432938c0,-0.63446 0,-1.270798 0,-1.905228l2.586548,0.952606l0.862305,-2.857803z" fill-rule="evenodd" id="svg_2"/>
   <path clip-rule="evenodd" d="m594.197144,177.530533l2.012451,-2.857819c11.845398,7.866623 22.143921,17.444077 32.759644,26.67099c1.201843,9.581299 -2.924744,13.27742 -1.724487,22.858719c-52.847839,5.298386 -101.174255,11.793228 -151.732025,19.050186c-15.918518,2.284332 -34.247833,3.189316 -48.279785,7.618912c-20.850494,6.584412 -28.394989,23.167358 -53.451416,26.67099c-12.240234,1.708984 -21.305786,-3.41983 -34.4841,-1.905212c-15.93924,1.830933 -34.980774,13.980438 -51.728699,20.953491c-49.843918,20.757294 -101.900269,43.368256 -146.560379,68.579895c-13.409416,-15.195953 -21.100517,-35.252045 -31.036873,-53.340088c-28.781296,-52.397095 -60.369995,-106.41925 -89.659992,-160.016571c-1.543402,-6.150024 5.623478,-2.676834 6.89785,-5.715652l2.586695,0.952621l2.586695,-0.952621c35.98436,65.651566 73.053413,130.104782 110.351807,194.306473c1.026062,-3.945648 -2.131424,-12.513367 1.724457,-13.334534l2.012466,2.857788l3.160934,-0.952606c2.288376,8.352478 -3.259232,17.842255 -1.724457,19.050232c63.263626,-34.244263 111.395142,-85.208557 206.909637,-83.819672c-1.462311,-21.932755 9.04657,-30.643356 15.516724,-43.814072c-2.729797,-0.158142 -6.575348,0.916397 -6.896118,-1.905197l0.862213,-2.855927l-0.862213,-2.857788c1.467529,0.350525 1.62616,-0.743027 1.724457,-1.905212l2.338379,-2.312927l-0.613861,-3.402725c6.664978,0.257217 6.7995,7.727539 12.069458,9.526062l2.093536,2.583466l3.078125,-0.678238c-1.151947,8.251419 -7.979034,10.232849 -8.620544,19.048264c8.122223,-0.550613 12.207428,-5.56134 22.41452,-3.808517c6.797821,2.013794 6.573608,11.789444 10.346771,17.143051c33.673615,-45.978394 116.539215,-37.610718 189.666779,-40.003632c-2.050354,-11.071167 -7.163391,-18.754898 -6.897827,-32.384735l3.15918,0.952576l0,0.000031z" fill-rule="evenodd" id="svg_3"/>
   <path clip-rule="evenodd" d="m30.368547,143.242493l-3.160934,0.952606c0.143129,-3.015945 -0.829468,-7.266449 1.724466,-7.620834l2.012438,2.857834l3.16094,-0.952606c-0.143135,3.015915 0.829464,7.264542 -1.724461,7.620819l-2.012449,-2.857819z" fill-rule="evenodd" id="svg_4"/>
   <g id="svg_5">
    <path clip-rule="evenodd" d="m593.048767,173.722015c0.382751,1.270767 0.765564,2.539642 1.148438,3.81041" fill="none" fill-rule="evenodd" stroke="#000000" stroke-linecap="round" stroke-width="3.1619" id="svg_6"/>
    <path clip-rule="evenodd" d="m29.794308,147.052902c0.06896,-1.270798 0.317293,-2.539658 0.57424,-3.81041" fill="none" fill-rule="evenodd" stroke="#000000" stroke-linecap="round" stroke-width="3.0818" id="svg_7"/>
    <path clip-rule="evenodd" d="m30.944517,139.432098c1.455458,-9.406036 2.733278,-21.466011 11.609087,-25.908936" fill="none" fill-rule="evenodd" stroke="#000000" stroke-linecap="round" stroke-width="3.3387" id="svg_8"/>
    <path clip-rule="evenodd" d="m42.553604,113.525055c53.937737,-39.54451 129.427826,-102.359227 192.181046,-44.033173" fill="none" fill-rule="evenodd" stroke="#000000" stroke-linecap="round" stroke-width="2.2807" id="svg_9"/>
    <path clip-rule="evenodd" d="m234.73465,69.491882c37.132874,-68.503671 118.28952,-34.507137 177.574829,-49.043884c58.302368,45.273468 119.150055,87.452888 176.141693,134.225723" fill="none" fill-rule="evenodd" stroke="#000000" stroke-linecap="round" stroke-width="2.328" id="svg_10"/>
    <path clip-rule="evenodd" d="m381.048431,217.263672c47.527863,-71.778748 139.531403,-45.942215 209.030731,-59.204391" fill="none" fill-rule="evenodd" stroke="#000000" stroke-linecap="round" stroke-width="3.9899" id="svg_11"/>
    <path clip-rule="evenodd" d="m234.73465,69.491882c44.927429,45.517326 87.638885,93.911514 132.766357,139.06308" fill="none" fill-rule="evenodd" stroke="#000000" stroke-linecap="round" stroke-width="3.0382" id="svg_12"/>
    <path clip-rule="evenodd" d="m42.553604,113.525055c37.967499,58.926193 69.551025,123.478439 107.075333,183.067627" fill="none" fill-rule="evenodd" stroke="#000000" stroke-linecap="round" stroke-width="2.6156" id="svg_13"/>
    <path clip-rule="evenodd" d="m149.630646,296.59079c68.611191,-34.531891 134.370148,-92.739822 214.66803,-80.959915" fill="none" fill-rule="evenodd" stroke="#000000" stroke-linecap="round" stroke-width="2.9805" id="svg_14"/>
    <path clip-rule="evenodd" d="m149.630646,296.59079c-0.958801,11.118805 -1.603745,22.277618 -3.160934,33.337341" fill="none" fill-rule="evenodd" stroke="#000000" stroke-linecap="round" stroke-width="3.7282" id="svg_15"/>
   </g>
  </g>
 </g>
</svg>
